{"title":"Total Recal Hindi Dubbed Cam Rip 250 MB Team-CC.Com","uid":7505684,"size":266577524,"categoryP":"video","categoryS":"movies","magnet":"?xt=urn:btih:6ec27f45f44f3cdfa94517a90f7831da09c4f6c2&amp;dn=Total+Recal+Hindi+Dubbed+Cam+Rip+250+MB+Team-CC.Com&amp;tr=udp%3A%2F%2Ftracker.openbittorrent.com%3A80&amp;tr=udp%3A%2F%2Fopen.demonii.com%3A1337&amp;tr=udp%3A%2F%2Ftracker.coppersurfer.tk%3A6969&amp;tr=udp%3A%2F%2Fexodus.desync.com%3A6969","seeders":0,"leechers":1,"uploader":"TeamCC","files":2,"time":1344166708,"description":"Please Visit [url=&quot;Team-CC.Com&quot;]Team-CC.Com[/url] For More Exclusive Releases\n\nSCREENSHOT &lt;a href=&quot;\nhttp://imgul.in/images/2012/08/03/5RdpQ.jpg&quot; rel=&quot;nofollow&quot; target=&quot;_NEW&quot;&gt;\nhttp://imgul.in/images/2012/08/03/5RdpQ.jpg&lt;/a&gt;\n\n[b]Video[/b]\nID                             : 1\nFormat                         : AVC\nFormat/Info                    : Advanced Video Codec\nFormat profile                 : &lt;a class=&quot;__cf_email__&quot; href=&quot;/cdn-cgi/l/email-protection&quot; data-cfemail=&quot;4f072628270f037e617c&quot;&gt;[email&amp;#160;protected]&lt;/a&gt;&lt;script cf-hash='f9e31' type=&quot;text/javascript&quot;&gt;\n/* &lt;![CDATA[ */!function(){try{var t=&quot;currentScript&quot;in document?document.currentScript:function(){for(var t=document.getElementsByTagName(&quot;script&quot;),e=t.length;e--;)if(t[e].getAttribute(&quot;cf-hash&quot;))return t[e]}();if(t&amp;&amp;t.previousSibling){var e,r,n,i,c=t.previousSibling,a=c.getAttribute(&quot;data-cfemail&quot;);if(a){for(e=&quot;&quot;,r=parseInt(a.substr(0,2),16),n=2;a.length-n;n+=2)i=parseInt(a.substr(n,2),16)^r,e+=String.fromCharCode(i);e=document.createTextNode(e),c.parentNode.replaceChild(e,c)}}}catch(u){}}();/* ]]&gt; */&lt;/script&gt;\nFormat settings, CABAC         : Yes\nFormat settings, ReFrames      : 4 frames\nMuxing mode                    : Header stripping\nCodec ID                       : V_MPEG4/ISO/AVC\nDuration                       : 1h 44mn\nBit rate                       : 274 Kbps\nWidth                          : 352 pixels\nHeight                         : 288 pixels\nDisplay aspect ratio           : 1.222\nFrame rate                     : 25.000 fps\nStandard                       : PAL\nColor space                    : YUV\nChroma subsampling             : 4:2:0\nBit depth                      : 8 bits\nScan type                      : Progressive\nBits/(Pixel*Frame)             : 0.108\nStream size                    : 201 MiB (79%)\n\n[b]Audio[/b]\nID                             : 2\nFormat                         : MPEG Audio\nFormat version                 : Version 1\nFormat profile                 : Layer 3\nMuxing mode                    : Header stripping\nCodec ID                       : A_MPEG/L3\nCodec ID/Hint                  : MP3\nDuration                       : 1h 44mn\nBit rate mode                  : Constant\nBit rate                       : 64.0 Kbps\nChannel(s)                     : 2 channels\nSampling rate                  : 44.1 KHz\nCompression mode               : Lossy\nStream size                    : 48.0 MiB (19%)\n\nPlease Visit [url=&quot;Team-CC.Com&quot;]Team-CC.Com[/url] For More Exclusive Releases","torrent":{"xt":"urn:btih:6ec27f45f44f3cdfa94517a90f7831da09c4f6c2","amp;dn":"Total+Recal+Hindi+Dubbed+Cam+Rip+250+MB+Team-CC.Com","amp;tr":["udp%3A%2F%2Ftracker.openbittorrent.com%3A80","udp%3A%2F%2Fopen.demonii.com%3A1337","udp%3A%2F%2Ftracker.coppersurfer.tk%3A6969","udp%3A%2F%2Fexodus.desync.com%3A6969"],"infoHash":"6ec27f45f44f3cdfa94517a90f7831da09c4f6c2","infoHashBuffer":{"type":"Buffer","data":[110,194,127,69,244,79,60,223,169,69,23,169,15,120,49,218,9,196,246,194]},"announce":[],"urlList":[]}}